HIERARCHY
ROOT Hips
{
	OFFSET -0.001795 -0.223333 0.028219
	CHANNELS 6 Xposition Yposition Zposition Zrotation Yrotation Xrotation 
	JOINT LeftUpLeg
	{
		OFFSET 0.069520 -0.091406 -0.006815
		CHANNELS 3 Zrotation Yrotation Xrotation
		JOINT LeftLeg
		{
			OFFSET 0.034277 -0.375199 -0.004496
			CHANNELS 3 Zrotation Yrotation Xrotation
			JOINT LeftFoot
			{
				OFFSET -0.013596 -0.397961 -0.043693
				CHANNELS 3 Zrotation Yrotation Xrotation
				JOINT LeftToe
				{
					OFFSET 0.026358 -0.055791 0.119288
					CHANNELS 3 Zrotation Yrotation Xrotation
					End Site
					{
						OFFSET 0.000000 0.000000 0.000000
					}
				}
			}
		}
	}
	JOINT RightUpLeg
	{
		OFFSET -0.067670 -0.090522 -0.004320
		CHANNELS 3 Zrotation Yrotation Xrotation
		JOINT RightLeg
		{
			OFFSET -0.038290 -0.382569 -0.008850
			CHANNELS 3 Zrotation Yrotation Xrotation
			JOINT RightFoot
			{
				OFFSET 0.015774 -0.398415 -0.042312
				CHANNELS 3 Zrotation Yrotation Xrotation
				JOINT RightToe
				{
					OFFSET -0.025372 -0.048144 0.123348
					CHANNELS 3 Zrotation Yrotation Xrotation
					End Site
					{
						OFFSET 0.000000 0.000000 0.000000
					}
				}
			}
		}
	}
	JOINT Spine
	{
		OFFSET -0.002533 0.108963 -0.026696
		CHANNELS 3 Zrotation Yrotation Xrotation
		JOINT Spine1
		{
			OFFSET 0.005487 0.135180 0.001092
			CHANNELS 3 Zrotation Yrotation Xrotation
			JOINT Spine2
			{
				OFFSET 0.001457 0.052922 0.025425
				CHANNELS 3 Zrotation Yrotation Xrotation
				JOINT Neck
				{
					OFFSET -0.002778 0.213870 -0.042857
					CHANNELS 3 Zrotation Yrotation Xrotation
					JOINT Head
					{
						OFFSET 0.005152 0.064970 0.051349
						CHANNELS 3 Zrotation Yrotation Xrotation
						End Site
						{
							OFFSET 0.000000 0.000000 0.000000
						}
					}
				}
				JOINT LeftShoulder
				{
					OFFSET 0.078845 0.121749 -0.034090
					CHANNELS 3 Zrotation Yrotation Xrotation
					JOINT LeftArm
					{
						OFFSET 0.090977 0.030469 -0.008868
						CHANNELS 3 Zrotation Yrotation Xrotation
						JOINT LeftForeArm
						{
							OFFSET 0.259612 -0.012772 -0.027456
							CHANNELS 3 Zrotation Yrotation Xrotation
							JOINT LeftHand
							{
								OFFSET 0.249234 0.008986 -0.001171
								CHANNELS 3 Zrotation Yrotation Xrotation
								End Site
								{
									OFFSET 0.000000 0.000000 0.000000
								}
							}
						}
					}
				}
				JOINT RightShoulder
				{
					OFFSET -0.081759 0.118833 -0.038615
					CHANNELS 3 Zrotation Yrotation Xrotation
					JOINT RightArm
					{
						OFFSET -0.096012 0.032551 -0.009143
						CHANNELS 3 Zrotation Yrotation Xrotation
						JOINT RightForeArm
						{
							OFFSET -0.253742 -0.013329 -0.021401
							CHANNELS 3 Zrotation Yrotation Xrotation
							JOINT RightHand
							{
								OFFSET -0.255298 0.007772 -0.005559
								CHANNELS 3 Zrotation Yrotation Xrotation
								End Site
								{
									OFFSET 0.000000 0.000000 0.000000
								}
							}
						}
					}
				}
			}
		}
	}
}
MOTION
Frames: 13
Frame Time: 0.050000
0.000000 0.951339 0.000000 -1.364767 0.990172 -2.204154 3.012125 0.339331 5.820235 -2.113081 0.269129 -2.608535 0.781596 5.967974 11.692197 0.000000 0.000000 0.000000 0.714866 -0.533485 4.821727 1.471978 -0.205276 -1.672641 -2.911465 -10.464935 12.386873 0.000000 0.000000 0.000000 -2.271167 -0.145437 6.807290 4.817765 -0.773912 -20.896319 -0.354650 -0.116162 25.530104 -0.363591 1.922522 -26.903692 0.000000 0.000000 0.000000 -33.527492 -5.169429 1.053123 -43.537031 -6.499310 -4.806410 -13.773670 -24.133423 4.037651 0.000000 0.000000 0.000000 25.090127 10.089215 4.828790 49.235449 6.126093 -4.574462 7.046850 27.495565 2.773270 0.000000 0.000000 0.000000 
-0.000104 0.950456 0.000454 -1.513439 0.478459 -1.865442 3.237901 0.338451 5.950319 -2.317391 0.297868 -3.313455 1.046036 6.311456 11.587719 0.000000 0.000000 0.000000 0.476182 -0.477809 4.449138 2.126869 -0.264965 -1.675532 -2.685997 -10.044046 12.103229 0.000000 0.000000 0.000000 -2.067456 -0.151196 6.676896 4.308987 -0.655624 -20.677574 0.061901 0.041375 25.029794 -0.458859 1.975336 -27.403177 0.000000 0.000000 0.000000 -33.671399 -5.408294 1.276979 -43.484808 -6.405210 -4.813696 -14.330429 -24.124706 4.155968 0.000000 0.000000 0.000000 24.345996 10.220495 4.798139 50.661104 5.090354 -5.021985 6.498169 28.626110 2.783686 0.000000 0.000000 0.000000 
-0.000113 0.950267 0.000642 -1.234147 0.173242 -1.683438 3.190218 0.297581 5.184356 -2.840609 0.331761 -2.221053 1.234383 6.555929 11.488681 0.000000 0.000000 0.000000 0.486417 -0.454412 4.237567 1.524384 -0.207211 -1.666256 -2.625150 -9.912109 11.860119 0.000000 0.000000 0.000000 -1.990941 -0.157335 6.846147 4.147727 -0.622241 -20.595328 0.023187 0.062924 24.478879 -0.937813 2.205003 -27.113799 0.000000 0.000000 0.000000 -33.451815 -5.396494 1.331634 -43.019040 -6.556851 -4.694069 -14.338727 -23.496915 4.031322 0.000000 0.000000 0.000000 24.911275 10.810901 5.072315 49.822279 5.099249 -4.852603 6.147048 28.697826 2.664967 0.000000 0.000000 0.000000 
-0.000177 0.949728 0.000811 -1.245038 0.160696 -1.813287 3.471382 0.300489 5.464511 -3.301810 0.374513 -2.429351 1.215123 6.494448 11.382553 0.000000 0.000000 0.000000 0.396511 -0.462829 4.368705 1.708574 -0.223163 -1.617745 -2.635368 -9.892073 11.671366 0.000000 0.000000 0.000000 -2.258152 -0.146136 7.060302 4.630864 -0.744627 -20.789993 -0.108350 0.244799 24.439047 -0.751616 2.142779 -27.403921 0.000000 0.000000 0.000000 -34.146405 -5.533081 1.305624 -42.255799 -6.475890 -4.610197 -15.125357 -23.382693 4.159674 0.000000 0.000000 0.000000 25.122318 11.221569 5.392385 49.024378 4.536904 -5.013656 7.015756 29.759739 2.993446 0.000000 0.000000 0.000000 
-0.000291 0.949871 0.000869 -1.191261 0.010913 -2.024372 3.454575 0.301517 5.395836 -3.381330 0.380632 -1.859851 1.293134 6.603441 11.361082 0.000000 0.000000 0.000000 0.417783 -0.493782 4.663708 1.542124 -0.210718 -1.744737 -2.553080 -9.759364 11.685143 0.000000 0.000000 0.000000 -2.182920 -0.164385 7.635409 4.595336 -0.766238 -20.409904 -0.075702 0.442513 23.828414 -1.108548 2.343795 -26.907664 0.000000 0.000000 0.000000 -33.980026 -5.687276 1.335640 -41.968630 -6.677359 -4.441554 -15.674785 -24.069071 4.394628 0.000000 0.000000 0.000000 25.696274 11.200413 5.406269 47.983244 4.738699 -4.788957 7.361416 30.454931 3.147179 0.000000 0.000000 0.000000 
-0.000307 0.949857 0.000885 -1.245152 0.141162 -2.044559 3.510854 0.296148 5.389213 -3.349487 0.376646 -1.836009 1.240313 6.517643 11.314765 0.000000 0.000000 0.000000 0.283337 -0.497580 4.769967 1.907417 -0.247623 -1.873298 -2.575658 -9.803652 11.762760 0.000000 0.000000 0.000000 -2.161438 -0.168406 7.711365 4.647910 -0.764677 -20.594302 0.005654 0.241154 24.120760 -1.241498 2.413981 -27.386957 0.000000 0.000000 0.000000 -34.034556 -5.898383 1.559305 -41.746698 -6.825276 -4.420164 -16.228801 -24.644626 4.634959 0.000000 0.000000 0.000000 25.908209 11.647077 5.663638 47.386963 5.034914 -4.648492 7.285675 30.798988 3.157277 0.000000 0.000000 0.000000 
-0.000288 0.949986 0.000770 -1.272628 0.240699 -2.017150 3.670180 0.280521 5.304490 -3.559895 0.395180 -1.776835 1.176268 6.430401 11.344971 0.000000 0.000000 0.000000 0.341807 -0.485374 4.612630 1.874983 -0.239997 -1.649662 -2.632182 -9.904891 11.787071 0.000000 0.000000 0.000000 -2.119520 -0.177777 7.981707 4.800117 -0.817402 -20.403626 -0.101094 0.133050 23.818906 -1.199053 2.376397 -27.220289 0.000000 0.000000 0.000000 -34.249489 -5.835626 1.507974 -41.432529 -7.132335 -4.274728 -16.420316 -25.114121 4.770803 0.000000 0.000000 0.000000 26.201643 11.847360 5.776813 46.821469 5.293496 -4.474995 7.180749 31.410171 3.191285 0.000000 0.000000 0.000000 
-0.000208 0.950036 0.000578 -1.323376 0.287775 -1.958829 3.634008 0.269888 5.109570 -3.403519 0.379426 -1.581691 1.185308 6.435506 11.292152 0.000000 0.000000 0.000000 0.491075 -0.485537 4.527425 1.710391 -0.224366 -1.631817 -2.661961 -9.962790 11.823955 0.000000 0.000000 0.000000 -2.021880 -0.187981 8.113198 4.767811 -0.812296 -20.325713 -0.072982 0.182596 23.836464 -1.099948 2.338240 -27.332592 0.000000 0.000000 0.000000 -34.154466 -6.341087 1.845956 -41.182669 -7.408285 -4.161802 -16.538572 -25.731528 4.917743 0.000000 0.000000 0.000000 26.319417 12.014671 5.922453 46.579827 5.651866 -4.338592 7.142609 31.855814 3.237782 0.000000 0.000000 0.000000 
-0.000124 0.950295 0.000337 -1.371319 0.294714 -1.901482 3.694844 0.258533 4.982051 -3.428149 0.381311 -1.502300 1.175890 6.437994 11.352769 0.000000 0.000000 0.000000 0.534882 -0.476144 4.413040 1.719330 -0.223763 -1.572917 -2.654319 -9.968788 11.924722 0.000000 0.000000 0.000000 -2.102357 -0.184149 8.204813 4.964008 -0.871788 -20.259452 0.009823 0.274012 23.792754 -1.065201 2.338361 -27.434746 0.000000 0.000000 0.000000 -34.158802 -6.540499 1.944213 -41.177517 -7.731541 -4.042289 -16.665805 -26.107589 5.021743 0.000000 0.000000 0.000000 26.460772 12.114195 6.026788 46.152675 5.858880 -4.236374 7.070873 32.220709 3.260949 0.000000 0.000000 0.000000 
-0.000072 0.950547 0.000124 -1.365862 0.231960 -1.828381 3.647604 0.246648 4.733303 -3.377723 0.375499 -1.220644 1.219446 6.513403 11.394241 0.000000 0.000000 0.000000 0.589218 -0.468968 4.318193 1.597517 -0.212367 -1.584865 -2.622253 -9.931726 12.000135 0.000000 0.000000 0.000000 -2.115993 -0.181922 8.186756 4.881621 -0.865489 -20.027090 0.102258 0.373509 23.724085 -1.002280 2.321020 -27.643626 0.000000 0.000000 0.000000 -34.066003 -6.857263 2.148190 -41.148791 -7.981168 -3.947768 -16.640198 -26.491063 5.090717 0.000000 0.000000 0.000000 26.488640 12.368682 6.207944 46.196170 6.105671 -4.147468 6.904220 32.426361 3.242053 0.000000 0.000000 0.000000 
-0.000066 0.950864 -0.000006 -1.340118 0.171842 -1.834285 3.695265 0.239850 4.640597 -3.520540 0.389562 -1.052763 1.223544 6.545259 11.504830 0.000000 0.000000 0.000000 0.563790 -0.477133 4.412118 1.578117 -0.214957 -1.767665 -2.566611 -9.860610 12.123148 0.000000 0.000000 0.000000 -2.210344 -0.176542 8.270740 4.900215 -0.877408 -19.956037 0.159433 0.504491 23.698166 -0.988552 2.336733 -27.830923 0.000000 0.000000 0.000000 -34.093838 -7.154757 2.317681 -41.075774 -8.045869 -3.905099 -16.699704 -26.822398 5.166987 0.000000 0.000000 0.000000 26.664879 12.694754 6.456621 46.114765 6.293368 -4.077375 7.042908 32.033278 3.230581 0.000000 0.000000 0.000000 
-0.000103 0.951012 -0.000066 -1.319137 0.120573 -1.925047 3.751687 0.248118 4.801714 -3.658523 0.404288 -1.157886 1.208989 6.544688 11.600184 0.000000 0.000000 0.000000 0.530709 -0.502910 4.677917 1.583347 -0.223302 -2.078981 -2.506357 -9.776509 12.220532 0.000000 0.000000 0.000000 -2.299599 -0.175197 8.500676 4.953001 -0.891276 -20.006283 0.257634 0.599485 23.773174 -0.976310 2.351957 -28.131870 0.000000 0.000000 0.000000 -34.099669 -7.191429 2.321642 -41.048014 -8.229736 -3.845685 -16.676419 -26.811419 5.157034 0.000000 0.000000 0.000000 26.649069 13.013768 6.677698 46.176483 6.583595 -3.986467 6.863752 31.263655 3.088402 0.000000 0.000000 0.000000 
-0.000141 0.950981 -0.000043 -1.318292 0.137600 -2.031970 3.887978 0.251069 4.961251 -3.884761 0.426781 -1.230832 1.170661 6.490594 11.619880 0.000000 0.000000 0.000000 0.552071 -0.529716 4.919682 1.544076 -0.225536 -2.294995 -2.495661 -9.762457 12.252987 0.000000 0.000000 0.000000 -2.321300 -0.178506 8.693251 4.826374 -0.868777 -19.816143 0.399828 0.626376 23.602386 -0.944934 2.339513 -28.119932 0.000000 0.000000 0.000000 -34.225677 -7.522337 2.533738 -40.872710 -8.162734 -3.832139 -16.677455 -26.774022 5.141103 0.000000 0.000000 0.000000 26.657259 13.351673 6.893918 46.378732 6.655327 -3.957205 6.933163 30.579647 3.021523 0.000000 0.000000 0.000000 
